<svg id="Layer_2" data-name="Layer 2" xmlns="http://www.w3.org/2000/svg" viewBox="0 0 542.06 382"><defs><style>.cls-1{fill:#43bdc9;}.cls-2{fill:#fad664;}.cls-3{fill:#fff;}.cls-4{fill:#e9c85c;}.cls-5{fill:#d0d0cf;}.cls-6{fill:#535352;}.cls-7{fill:#3a3a3a;}.cls-8{fill:#545554;}.cls-9{fill:#414141;}</style></defs><title>design</title><path class="cls-1" d="M289.72,15c0,105.49-84.95,191-189.72,191S-89.72,120.49-89.72,15-4.79-176,100-176,289.72-90.49,289.72,15Z" transform="translate(171.03 176)"/><rect class="cls-2" x="271.03" y="170.54" width="189.72" height="40.93"/><rect class="cls-3" x="460.76" y="170.54" width="54.21" height="40.93"/><rect class="cls-4" x="271.03" y="197.82" width="189.72" height="13.64"/><rect class="cls-5" x="460.76" y="197.82" width="54.21" height="13.64"/><path class="cls-6" d="M357.48-5.46H343.93V35.46h13.55A13.6,13.6,0,0,0,371,21.81V8.18A13.6,13.6,0,0,0,357.48-5.46Z" transform="translate(171.03 176)"/><path class="cls-7" d="M357.48,21.81H343.93V35.46h13.55A13.6,13.6,0,0,0,371,21.81V8.18h0A13.59,13.59,0,0,1,357.48,21.81Z" transform="translate(171.03 176)"/><polygon class="cls-8" points="222.78 314.93 251.27 322.61 292.43 195.82 319.28 67.08 290.79 59.4 249.82 185.54 222.78 314.93"/><polygon class="cls-8" points="167.7 274.04 188.56 295.03 287.17 205.94 374.36 107.97 353.51 86.97 255.37 175.59 167.7 274.04"/><polygon class="cls-8" points="140.3 210.89 147.94 239.58 277.58 212.06 401.76 171.11 394.13 142.42 265.12 169.78 140.3 210.89"/><polygon class="cls-8" points="147.94 142.42 140.31 171.11 266.25 212.54 394.12 239.58 401.76 210.9 276.45 169.64 147.94 142.42"/><polygon class="cls-8" points="188.56 86.97 167.7 107.97 256.19 207.24 353.51 295.03 374.36 274.04 286.34 175.23 188.56 86.97"/><polygon class="cls-8" points="251.27 59.4 222.78 67.08 250.12 197.59 290.79 322.61 319.28 314.93 292.11 185.05 251.27 59.4"/><path class="cls-8" d="M198.71-11.63c14.6,54.88-17.75,111.29-72.26,126S15.9,96.51,1.29,41.63,19-69.67,73.55-84.37,184.1-66.51,198.71-11.63Z" transform="translate(171.03 176)"/><path class="cls-1" d="M149.36,1.69a51.48,51.48,0,0,1-36.13,63A51.07,51.07,0,0,1,50.65,28.32a51.48,51.48,0,0,1,36.13-63A51.07,51.07,0,0,1,149.36,1.69Z" transform="translate(171.03 176)"/><path class="cls-9" d="M88.66-27.59A43.82,43.82,0,0,1,142.31,3.59a44.18,44.18,0,0,1-31,54A43.81,43.81,0,0,1,57.7,26.41a44.17,44.17,0,0,1,31-54Zm-3.78-14.2a58.82,58.82,0,0,0-41.29,72,58.35,58.35,0,0,0,71.52,41.57,58.83,58.83,0,0,0,41.29-72A58.35,58.35,0,0,0,84.89-41.78Z" transform="translate(171.03 176)"/><polygon class="cls-5" points="27.1 197.81 81.31 211.42 81.31 197.82 27.1 193.27 27.1 197.81"/><polygon class="cls-3" points="27.1 184.18 27.1 193.27 81.31 197.82 81.31 170.54 27.1 184.18"/><polygon class="cls-6" points="27.1 184.18 0 191 27.1 193.27 27.1 184.18"/><polygon class="cls-7" points="0 191 27.1 197.81 27.1 193.27 0 191"/><path class="cls-2" d="M138.78-5.46H-89.72V35.46H18.69V21.82H143.27A44.49,44.49,0,0,0,143.8,15,44,44,0,0,0,138.78-5.46Z" transform="translate(171.03 176)"/><path class="cls-4" d="M18.69,21.82H-89.72V35.46h228.5a43.74,43.74,0,0,0,4.49-13.64Z" transform="translate(171.03 176)"/></svg>