<svg id="Layer_1" data-name="Layer 1" xmlns="http://www.w3.org/2000/svg" viewBox="0 0 400.72 277.33"><defs><style>.cls-1{fill:#fff;}.cls-2{fill:#414141;}.cls-3{fill:#545554;}.cls-4{fill:#3a3a3a;}.cls-5{fill:#535352;}.cls-6{fill:#fad664;}.cls-7{fill:#e9c85c;}.cls-8{fill:#d0d0cf;}</style></defs><title>briefcase</title><g id="Briefcase"><ellipse class="cls-1" cx="207.78" cy="138.66" rx="138.52" ry="138.66"/><rect class="cls-2" x="108.84" y="44.57" width="39.58" height="29.71"/><rect class="cls-2" x="267.15" y="44.57" width="39.58" height="29.71"/><rect class="cls-2" x="89.05" y="49.52" width="237.47" height="178.28"/><rect class="cls-3" x="108.84" y="49.52" width="39.58" height="178.28"/><rect class="cls-3" x="267.15" y="49.52" width="39.58" height="178.28"/><path class="cls-4" d="M400,200.22a14.84,14.84,0,1,1-14.84-14.86A14.89,14.89,0,0,1,400,200.22Z" transform="translate(0.72 -61.56)"/><path class="cls-5" d="M390.11,185.36h-9.89a9.9,9.9,0,0,0,0,19.81h9.89a9.9,9.9,0,0,0,0-19.81Z" transform="translate(0.72 -61.56)"/><rect class="cls-6" x="59.37" y="123.81" width="306.73" height="29.71"/><rect class="cls-1" x="356.2" y="123.81" width="29.68" height="29.71"/><rect class="cls-7" x="59.37" y="143.62" width="296.83" height="9.9"/><rect class="cls-8" x="356.2" y="143.62" width="29.68" height="9.9"/><polygon class="cls-8" points="19.79 143.6 59.37 153.49 59.37 143.62 19.79 140.31 19.79 143.6"/><polygon class="cls-1" points="19.79 133.71 19.79 140.31 59.37 143.62 59.37 123.81 19.79 133.71"/><polygon class="cls-5" points="19.79 133.71 0 138.66 19.79 140.31 19.79 133.71"/><polygon class="cls-4" points="0 138.66 19.79 143.6 19.79 140.31 0 138.66"/><path class="cls-2" d="M236.74,91.27v19.81H177.38V91.27Zm9.89-9.9H167.48V121h79.16V81.37Z" transform="translate(0.72 -61.56)"/></g></svg>