<svg id="Layer_1" data-name="Layer 1" xmlns="http://www.w3.org/2000/svg" viewBox="0 0 399.65 400"><defs><style>.cls-1{fill:#797fa6;}.cls-2{fill:#7980a7;}.cls-3{fill:#545554;}.cls-4{fill:#414141;}.cls-5{fill:#fad664;}.cls-6{fill:#fff;}.cls-7{fill:#dbdada;}</style></defs><title>develop</title><path class="cls-1" d="M388.39,199.22c0,103.45-83.87,187.32-187.32,187.32S13.76,302.67,13.76,199.22,97.62,11.9,201.08,11.9,388.39,95.76,388.39,199.22Z" transform="translate(-0.35)"/><path class="cls-2" d="M386.58,200c0,103.09-84.15,186.67-187.94,186.67S10.7,303.09,10.7,200,94.84,13.33,198.64,13.33,386.58,96.9,386.58,200Z" transform="translate(-0.35)"/><path class="cls-3" d="M306,373.33A26.83,26.83,0,0,1,279.18,400H118.1a26.83,26.83,0,0,1-26.85-26.67V26.67A26.83,26.83,0,0,1,118.1,0H279.18A26.83,26.83,0,0,1,306,26.67Z" transform="translate(-0.35)"/><rect class="cls-4" x="184.86" y="23.33" width="26.85" height="6.67"/><rect class="cls-4" x="168.09" y="366.67" width="60.4" height="13.33" rx="0.5" ry="0.5"/><rect class="cls-5" x="104.32" y="53.33" width="187.94" height="293.33"/><rect class="cls-6" x="171.44" y="236.67" width="168.36" height="6.67"/><rect class="cls-5" x="339.8" y="236.67" width="59.85" height="6.67"/><ellipse class="cls-3" cx="339.24" cy="240" rx="6.71" ry="6.67"/><rect class="cls-3" x="198.29" y="120" width="80.54" height="80"/><path class="cls-6" d="M265.29,162.94v-5.89l-6.15-.33a19.83,19.83,0,0,0-1.06-3.94l5.16-3.34-3-5.09-5.48,2.76a20.12,20.12,0,0,0-2.91-2.89l2.78-5.44-5.13-2.94L246.17,141a20.4,20.4,0,0,0-4-1.05l-.33-6.11h-5.93l-.33,6.11a20.47,20.47,0,0,0-4,1.05l-3.37-5.12-5.13,2.94,2.78,5.44a20.7,20.7,0,0,0-2.91,2.89l-5.48-2.76-3,5.09,5.16,3.34a20.33,20.33,0,0,0-1.06,3.94l-6.15.33v5.89l6.15.33a19.87,19.87,0,0,0,1.06,3.94l-5.16,3.34,3,5.09,5.48-2.76a20.12,20.12,0,0,0,2.91,2.89l-2.78,5.44,5.13,2.94,3.37-5.12a20.08,20.08,0,0,0,4,1.05l.33,6.11h5.93l.33-6.11a20.33,20.33,0,0,0,4-1.05l3.36,5.12,5.13-2.94-2.78-5.44a20.82,20.82,0,0,0,2.91-2.89l5.48,2.76,3-5.09-5.16-3.34a20.25,20.25,0,0,0,1.06-3.94ZM249.18,160a10.26,10.26,0,1,1-10.26-10.19A10.23,10.23,0,0,1,249.18,160Z" transform="translate(-0.35)"/><rect class="cls-6" x="64.05" y="226.67" width="80.54" height="53.33"/><polygon class="cls-6" points="131.17 293.33 117.74 280 131.17 280 131.17 293.33"/><rect class="cls-3" x="77.47" y="245" width="53.7" height="3.33"/><rect class="cls-3" x="77.47" y="251.67" width="53.7" height="3.33"/><rect class="cls-3" x="77.47" y="258.33" width="53.7" height="3.33"/><rect class="cls-6" x="23.77" y="173.33" width="147.66" height="26.67"/><rect class="cls-3" x="144.59" y="173.33" width="26.85" height="26.67"/><ellipse class="cls-7" cx="37.2" cy="186.67" rx="3.36" ry="3.33"/><ellipse class="cls-7" cx="50.62" cy="186.67" rx="3.36" ry="3.33"/><ellipse class="cls-7" cx="64.05" cy="186.67" rx="3.36" ry="3.33"/><ellipse class="cls-7" cx="77.47" cy="186.67" rx="3.36" ry="3.33"/><ellipse class="cls-7" cx="90.89" cy="186.67" rx="3.36" ry="3.33"/><rect class="cls-6" x="319.66" y="173.33" width="40.27" height="40"/><path class="cls-3" d="M340.15,189.17a4.2,4.2,0,0,0-8.39,0c0,4.6,8.39,12.5,8.39,12.5s8.39-7.9,8.39-12.5a4.2,4.2,0,0,0-8.39,0Z" transform="translate(-0.35)"/><rect class="cls-6" x="131.17" y="106.67" width="40.27" height="40"/><path class="cls-5" d="M160.92,128.16a7.65,7.65,0,0,1-10.77,0,7.53,7.53,0,0,1,0-10.7,7.66,7.66,0,0,1,10.77,0A7.53,7.53,0,0,1,160.92,128.16Z" transform="translate(-0.35)"/><path class="cls-3" d="M155.54,132a9.25,9.25,0,0,1-6.57-2.71,9.18,9.18,0,0,1,0-13.05,9.35,9.35,0,0,1,13.15,0,9.19,9.19,0,0,1,0,13.05A9.27,9.27,0,0,1,155.54,132Zm0-15.13a5.92,5.92,0,0,0-4.2,1.73,5.86,5.86,0,0,0,0,8.34,6.1,6.1,0,0,0,8.4,0,5.87,5.87,0,0,0,0-8.34A5.93,5.93,0,0,0,155.54,116.91Z" transform="translate(-0.35)"/><polygon class="cls-3" points="140.21 140.04 137.84 137.68 148.62 126.98 150.99 129.34 140.21 140.04"/><polygon class="cls-3" points="140.81 140.63 137.25 137.09 145.32 129.07 148.88 132.6 140.81 140.63"/><rect class="cls-3" x="211.71" y="266.67" width="53.7" height="53.33"/><path class="cls-6" d="M247.51,288.46a6.6,6.6,0,0,0-1.26.12,9.83,9.83,0,0,0-18.39,4.76,4.88,4.88,0,1,0,0,9.76h19.65a7.32,7.32,0,1,0,0-14.64Z" transform="translate(-0.35)"/><rect class="cls-6" x="198.29" y="40" width="53.7" height="53.33"/><path class="cls-3" d="M226,51A10.71,10.71,0,0,0,215.25,61.7C215.25,67.59,226,83,226,83s10.74-15.44,10.74-21.33A10.71,10.71,0,0,0,226,51Zm0,14.66a4,4,0,1,1,4-4A4,4,0,0,1,226,65.7Z" transform="translate(-0.35)"/><polygon class="cls-6" points="78.31 72.22 76.63 72.22 76.63 71.39 75.79 71.39 75.79 69.72 78.31 69.72 78.31 72.22"/><path class="cls-6" d="M72.66,71.39H69.17V69.72h3.49Zm-7,0H62.19V69.72h3.49Zm-7,0H55.21V69.72H58.7Zm-7,0H48.23V69.72h3.49Zm-7,0H41.26V69.72h3.49Zm-7,0H34.27V69.72h3.49Zm-7,0H27.3V69.72h3.49Zm-7,0H20.32V69.72h3.49Zm-7,0H13.34V69.72h3.49Zm-7,0H6.36V69.72H9.85Z" transform="translate(-0.35)"/><polygon class="cls-6" points="1.68 72.22 0 72.22 0 69.72 2.52 69.72 2.52 71.39 1.68 71.39 1.68 72.22"/><path class="cls-6" d="M2,141.53H.35v-3.47H2Zm0-6.93H.35v-3.47H2Zm0-6.93H.35v-3.46H2Zm0-6.93H.35v-3.47H2Zm0-6.93H.35v-3.47H2Zm0-6.93H.35v-3.46H2Zm0-6.93H.35V96.48H2ZM2,93H.35V89.55H2Zm0-6.93H.35V82.62H2Zm0-6.93H.35V75.68H2Z" transform="translate(-0.35)"/><polygon class="cls-6" points="2.52 147.5 0 147.5 0 145 1.68 145 1.68 145.83 2.52 145.83 2.52 147.5"/><path class="cls-6" d="M72.66,147.5H69.17v-1.67h3.49Zm-7,0H62.19v-1.67h3.49Zm-7,0H55.21v-1.67H58.7Zm-7,0H48.23v-1.67h3.49Zm-7,0H41.26v-1.67h3.49Zm-7,0H34.27v-1.67h3.49Zm-7,0H27.3v-1.67h3.49Zm-7,0H20.32v-1.67h3.49Zm-7,0H13.34v-1.67h3.49Zm-7,0H6.36v-1.67H9.85Z" transform="translate(-0.35)"/><polygon class="cls-6" points="78.31 147.5 75.79 147.5 75.79 145.83 76.63 145.83 76.63 145 78.31 145 78.31 147.5"/><path class="cls-6" d="M78.66,141.54H77v-3.47h1.68Zm0-6.93H77v-3.46h1.68Zm0-6.93H77v-3.47h1.68Zm0-6.93H77v-3.47h1.68Zm0-6.93H77v-3.46h1.68Zm0-6.93H77v-3.47h1.68Zm0-6.93H77V96.48h1.68Zm0-6.93H77V89.55h1.68Zm0-6.93H77V82.62h1.68Zm0-6.93H77V75.69h1.68Z" transform="translate(-0.35)"/><polygon class="cls-6" points="378.39 270.28 376.71 270.28 376.71 269.45 375.87 269.45 375.87 267.78 378.39 267.78 378.39 270.28"/><path class="cls-6" d="M373,269.45h-3.21v-1.67H373Zm-6.42,0h-3.2v-1.67h3.2Zm-6.42,0H357v-1.67h3.21Zm-6.42,0h-3.2v-1.67h3.2Zm-6.42,0h-3.21v-1.67h3.21Zm-6.41,0h-3.21v-1.67h3.21Zm-6.42,0h-3.2v-1.67h3.2Zm-6.42,0H324.9v-1.67h3.21Z" transform="translate(-0.35)"/><polygon class="cls-6" points="320.5 270.28 318.82 270.28 318.82 267.78 321.34 267.78 321.34 269.45 320.5 269.45 320.5 270.28"/><path class="cls-6" d="M320.85,321.26h-1.68v-3.18h1.68Zm0-6.37h-1.68V311.7h1.68Zm0-6.37h-1.68v-3.19h1.68Zm0-6.37h-1.68V299h1.68Zm0-6.37h-1.68v-3.18h1.68Zm0-6.37h-1.68v-3.18h1.68Zm0-6.37h-1.68v-3.18h1.68Zm0-6.37h-1.68v-3.18h1.68Z" transform="translate(-0.35)"/><polygon class="cls-6" points="321.34 326.95 318.82 326.95 318.82 324.45 320.5 324.45 320.5 325.28 321.34 325.28 321.34 326.95"/><path class="cls-6" d="M373,326.95h-3.21v-1.67H373Zm-6.42,0h-3.2v-1.67h3.2Zm-6.42,0H357v-1.67h3.21Zm-6.41,0h-3.21v-1.67h3.21Zm-6.42,0h-3.21v-1.67h3.21Zm-6.42,0h-3.21v-1.67h3.21Zm-6.42,0h-3.2v-1.67h3.2Zm-6.42,0H324.9v-1.67h3.21Z" transform="translate(-0.35)"/><polygon class="cls-6" points="378.39 326.95 375.87 326.95 375.87 325.28 376.71 325.28 376.71 324.45 378.39 324.45 378.39 326.95"/><path class="cls-6" d="M378.74,321.26h-1.68v-3.18h1.68Zm0-6.37h-1.68V311.7h1.68Zm0-6.38h-1.68v-3.18h1.68Zm0-6.37h-1.68V299h1.68Zm0-6.37h-1.68v-3.18h1.68Zm0-6.37h-1.68V286.2h1.68Zm0-6.37h-1.68v-3.18h1.68Zm0-6.37h-1.68v-3.18h1.68Z" transform="translate(-0.35)"/><polygon class="cls-3" points="199.13 294.17 196.61 294.17 196.61 292.5 197.45 292.5 197.45 291.67 199.13 291.67 199.13 294.17"/><path class="cls-3" d="M193.61,294.17h-3.36V292.5h3.36Zm-6.71,0h-3.36V292.5h3.36Zm-6.71,0h-3.36V292.5h3.36Z" transform="translate(-0.35)"/><polygon class="cls-3" points="173.12 294.17 170.6 294.17 170.6 291.67 172.28 291.67 172.28 292.5 173.12 292.5 173.12 294.17"/><path class="cls-3" d="M172.63,288.33H171V285h1.68Zm0-6.67H171v-3.33h1.68Zm0-6.67H171v-3.33h1.68Z" transform="translate(-0.35)"/><polygon class="cls-3" points="172.28 268.33 170.6 268.33 170.6 265.83 173.12 265.83 173.12 267.5 172.28 267.5 172.28 268.33"/><path class="cls-3" d="M193.61,267.5h-3.36v-1.67h3.36Zm-6.71,0h-3.36v-1.67h3.36Zm-6.71,0h-3.36v-1.67h3.36Z" transform="translate(-0.35)"/><polygon class="cls-3" points="199.13 268.33 197.45 268.33 197.45 267.5 196.61 267.5 196.61 265.83 199.13 265.83 199.13 268.33"/><path class="cls-3" d="M199.48,288.33H197.8V285h1.68Zm0-6.67H197.8v-3.33h1.68Zm0-6.67H197.8v-3.33h1.68Z" transform="translate(-0.35)"/><polygon class="cls-6" points="333.92 135 332.24 135 332.24 134.17 331.4 134.17 331.4 132.5 333.92 132.5 333.92 135"/><rect class="cls-6" x="324.69" y="132.5" width="3.36" height="1.67"/><polygon class="cls-6" points="320.5 135 318.82 135 318.82 132.5 321.34 132.5 321.34 134.17 320.5 134.17 320.5 135"/><rect class="cls-6" x="318.82" y="138.33" width="1.68" height="3.33"/><polygon class="cls-6" points="321.34 147.5 318.82 147.5 318.82 145 320.5 145 320.5 145.83 321.34 145.83 321.34 147.5"/><rect class="cls-6" x="324.69" y="145.83" width="3.36" height="1.67"/><polygon class="cls-6" points="333.92 147.5 331.4 147.5 331.4 145.83 332.24 145.83 332.24 145 333.92 145 333.92 147.5"/><rect class="cls-6" x="332.24" y="138.33" width="1.68" height="3.33"/><polygon class="cls-6" points="38.88 334.17 36.36 334.17 36.36 331.67 38.04 331.67 38.04 332.5 38.88 332.5 38.88 334.17"/><path class="cls-6" d="M59.37,334.17H56V332.5h3.36Zm-6.71,0H49.3V332.5h3.36Zm-6.71,0H42.59V332.5h3.36Z" transform="translate(-0.35)"/><polygon class="cls-6" points="64.89 334.17 62.37 334.17 62.37 332.5 63.21 332.5 63.21 331.67 64.89 331.67 64.89 334.17"/><path class="cls-6" d="M65.24,328.33H63.56V325h1.68Zm0-6.67H63.56v-3.33h1.68Zm0-6.67H63.56v-3.33h1.68Z" transform="translate(-0.35)"/><polygon class="cls-6" points="64.89 308.33 63.21 308.33 63.21 307.5 62.37 307.5 62.37 305.83 64.89 305.83 64.89 308.33"/><path class="cls-6" d="M59.37,307.5H56v-1.67h3.36Zm-6.71,0H49.3v-1.67h3.36Zm-6.71,0H42.59v-1.67h3.36Z" transform="translate(-0.35)"/><polygon class="cls-6" points="38.04 308.33 36.36 308.33 36.36 305.83 38.88 305.83 38.88 307.5 38.04 307.5 38.04 308.33"/><path class="cls-6" d="M38.39,328.33H36.71V325h1.68Zm0-6.67H36.71v-3.33h1.68Zm0-6.67H36.71v-3.33h1.68Z" transform="translate(-0.35)"/></svg>