<svg xmlns="http://www.w3.org/2000/svg" viewBox="0 0 98.5 69.8"><title>logo</title><g id="logo"><path d="M.25,53.42s8.19-1.77,13.94-6.36a15.47,15.47,0,0,1-6.11,0S25.32,41.44,30,34.1c0,0-3.73,1-6,.12,0,0,13.7-4.28,22.26-16.63,0,0-3.42,2.69-6.48,2.32a29.85,29.85,0,0,0,8.44-8.19C51.15,7.17,57.48.1,68.25.1,74,.1,81.45,1.57,85.61,4.5c0,0,.06-1.5-2.81-3.91,0,0,8.81-.24,12.47,9.91,0,0,.76-.64,0-3.79,0,0,6.51,5.11,1.71,15.56,0,0,.37,13.43-7,14.16,0,0,4-8.21.81-10.29.17,1.78.16,5.87-3,8.49a17.89,17.89,0,0,0,.71-4.47c.05-1.34-.4-2.66-.39-4,0-.61-.53-.92-.76-1.84a3.69,3.69,0,0,0-3.69-2.68c-8.44,0-5.28,9.63-12.13,14.19,0,0,1.22-3.91,0-6.11,0,0-2.32,8.81-6.73,13.21S54.67,50.1,56.26,54.62c1.42,4,4.57,9.86,6,11.34H75.11a2,2,0,0,1,0,3.94H42.93a2,2,0,0,1,0-3.94H56.55c-.19-1.48-2.48-5.85-3.34-7.79-1-2.2-4.43-4.21-5.88-4.82s-1.39-.67-1-1.89a12.32,12.32,0,0,1,4.22-5.73s-7.34,2.44-9.78,13.2a6.6,6.6,0,0,1-.61-5.51A24,24,0,0,1,20.18,56a29.1,29.1,0,0,0,13.33-5.38,4.83,4.83,0,0,1-1.83,2.81,64.4,64.4,0,0,0,25.8-22.5s-9.42,10.52-19.08,15.9c0,0,2.2-2.57,2.45-4.77A50.69,50.69,0,0,1,.25,53.42Z" transform="translate(-0.25 -0.1)"/></g></svg>