<svg id="Layer_1" data-name="Layer 1" xmlns="http://www.w3.org/2000/svg" viewBox="0 0 448 448"><defs><style>.cls-1{fill:#959dc6;}.cls-2{fill:#fff;}.cls-3{fill:#78c48b;}.cls-4{fill:#dbdada;}.cls-5{fill:#43bdc9;}.cls-6{fill:#414141;}</style></defs><title>seo</title><circle class="cls-1" cx="224" cy="224" r="187.22"/><rect class="cls-2" x="-123.99" y="11.21" width="447.99" height="6.69" transform="translate(184.06 316.82) rotate(-75)"/><rect class="cls-2" x="-124" y="11.22" width="448" height="6.68" transform="translate(161.4 303.33) rotate(-60.01)"/><rect class="cls-2" x="-123.99" y="11.22" width="447.99" height="6.69" transform="translate(142.99 284.42) rotate(-45)"/><rect class="cls-2" x="-124" y="11.22" width="448" height="6.69" transform="translate(130.11 261.38) rotate(-29.99)"/><rect class="cls-2" x="-124" y="11.22" width="448" height="6.69" transform="translate(123.64 235.82) rotate(-15)"/><rect class="cls-2" y="220.66" width="448" height="6.69"/><rect class="cls-2" x="96.66" y="-209.44" width="6.69" height="448" transform="translate(184.05 316.82) rotate(-75)"/><rect class="cls-2" x="96.66" y="-209.44" width="6.69" height="448" transform="translate(161.39 303.32) rotate(-60)"/><rect class="cls-2" x="96.66" y="-209.43" width="6.69" height="447.99" transform="translate(142.99 284.41) rotate(-45)"/><rect class="cls-2" x="96.66" y="-209.44" width="6.68" height="448" transform="translate(130.12 261.39) rotate(-30)"/><rect class="cls-2" x="96.66" y="-209.44" width="6.69" height="447.99" transform="matrix(0.97, -0.26, 0.26, 0.97, 123.64, 235.81)"/><rect class="cls-2" x="220.66" width="6.69" height="448"/><path class="cls-3" d="M293.91,14.56c0,107.1-86.81,193.91-193.91,193.91S-93.91,121.67-93.91,14.56-7.1-179.35,100-179.35,293.91-92.53,293.91,14.56Z" transform="translate(124 209.44)"/><path class="cls-2" d="M100-65.68c-62.14,0-118.62,30.51-160.48,80.24h321C218.62-35.17,162.14-65.68,100-65.68Z" transform="translate(124 209.44)"/><path class="cls-4" d="M-60.48,14.56C-18.62,64.29,37.86,94.8,100,94.8S218.62,64.29,260.48,14.56Z" transform="translate(124 209.44)"/><circle class="cls-5" cx="224" cy="224.84" r="53.49"/><circle class="cls-6" cx="224" cy="224.84" r="26.75"/><circle class="cls-2" cx="224" cy="224.84" r="13.37"/></svg>