<svg id="Layer_1" data-name="Layer 1" xmlns="http://www.w3.org/2000/svg" xmlns:xlink="http://www.w3.org/1999/xlink" viewBox="0 0 500 500"><defs><style>.cls-1{fill:none;}.cls-2{clip-path:url(#clip-path);}.cls-3{fill:#424445;}.cls-4{fill:#535556;}.cls-5{fill:#0d72b9;}.cls-6{fill:#28a8e0;}.cls-7{fill:#f3f4f5;}.cls-8{fill:#e4e3e2;}</style><clipPath id="clip-path" transform="translate(-250 -269.59)"><polygon class="cls-1" points="349 354 651 354 626.5 651.5 500 687 376 654 349 354"/></clipPath></defs><title>css3</title><g class="cls-2"><g id="vector_illustration_of_blue_shield_with_css_three_number_on_the" data-name="vector illustration of blue shield with css three number on the"><path class="cls-3" d="M750,689.59V449.66l-97.6-97.6L375.31,654.37,490.53,769.59H670a80,80,0,0,0,80-80Z" transform="translate(-250 -269.59)"/><path class="cls-4" d="M652.4,352.06l97.6,97.6V349.59a80,80,0,0,0-80-80H330a80,80,0,0,0-80,80v340a80,80,0,0,0,80,80H490.53L375.31,654.37,652.4,352.06Z" transform="translate(-250 -269.59)"/><polygon class="cls-5" points="97.75 82.47 402.41 82.47 375.97 382.12 250.08 417.37 125.44 384.64 97.75 82.47 97.75 82.47"/><polygon class="cls-6" points="245.87 105.97 370.09 105.97 348.27 357.77 245.87 386.31 245.87 105.97 245.87 105.97"/><polygon class="cls-7" points="245.87 134.57 245.87 171.5 249.44 171.5 336.31 171.5 336.31 171.5 339.67 134.57 245.87 134.57 245.87 134.57"/><polygon class="cls-7" points="245.87 246.62 291.82 246.62 286.79 295.3 245.87 307.47 245.87 345.14 323.3 323.83 332.53 210.1 250.28 210.1 245.87 210.06 245.87 246.62 245.87 246.62"/><polygon class="cls-8" points="155.85 171.5 245.87 171.5 245.87 134.57 152.08 134.57 155.85 171.5 155.85 171.5"/><polygon class="cls-8" points="245.87 307.47 204.96 294.88 201.6 266.34 164.25 265.5 169.7 323.83 245.87 345.14 245.87 345.14 245.87 307.47 245.87 307.47 245.87 307.47"/><polygon class="cls-8" points="249.44 171.5 245.87 172.99 159.21 209.27 162.99 246.62 245.87 246.62 245.87 210.06 250.28 210.1 336.31 171.5 249.44 171.5 249.44 171.5"/></g></g></svg>