<svg id="Layer_1" data-name="Layer 1" xmlns="http://www.w3.org/2000/svg" xmlns:xlink="http://www.w3.org/1999/xlink" viewBox="0 0 243.19 243.19"><defs><style>.cls-1{fill:none;}.cls-2{clip-path:url(#clip-path);}.cls-3{fill:#424344;}.cls-4{fill:#525456;}.cls-5{fill:#609ad3;}.cls-6{fill:#6ecff2;}.cls-7{fill:#fff;}</style><clipPath id="clip-path" transform="translate(-395 -357.3)"><polygon class="cls-1" points="443 398 590 398 578 543 516.6 560.25 456.5 544.5 443 398"/></clipPath></defs><title>git</title><g class="cls-2"><g id="vector_web_development_shield_sign_-_version_control_system" data-name="vector web development shield sign - version control system"><path class="cls-3" d="M638.19,561.58V444.89l-47.47-47.47L456,544.45l56,56h87.29a38.91,38.91,0,0,0,38.91-38.91Z" transform="translate(-395 -357.3)"/><path class="cls-4" d="M590.72,397.41l47.47,47.47V396.21a38.91,38.91,0,0,0-38.91-38.91H433.91A38.91,38.91,0,0,0,395,396.21V561.58a38.91,38.91,0,0,0,38.91,38.91H512l-56-56,134.77-147Z" transform="translate(-395 -357.3)"/><polygon class="cls-5" points="47.54 40.11 195.73 40.11 182.87 185.86 121.64 203 61.02 187.08 47.54 40.11 47.54 40.11"/><polygon class="cls-6" points="121.6 50.55 182.01 50.55 171.4 173.01 121.6 186.89 121.6 50.55 121.6 50.55"/><path class="cls-7" d="M545.43,489.69c-1.9,5.65-9.34,6.94-9.34,6.94s-5.4.8-5.84-2.52-4.24-6.37-4.24-6.37c19.41-.82,26.54-14,26.54-25.88s-6.33-16.71-6.33-16.71c.49-15.79-1.17-14.81-1.17-14.81-8.72-.31-15.36,5.47-15.36,5.47-4.73-2-13.11-1.6-13.11-1.6s-8.38-.37-13.11,1.6c0,0-6.63-5.77-15.36-5.47,0,0-1.66-1-1.17,14.81,0,0-6.33,4.83-6.33,16.71s7.13,25.07,26.54,25.88c0,0-3.81,3.05-4.24,6.37s-5.84,2.52-5.84,2.52-7.43-1.29-9.34-6.94-9.28-4.91-9.46-3.56,3.75,2.15,4.91,4.48,3.32,8.85,6.27,10.2,8.54,3.29,13.74,1c.12,2.77.34,9.12-.06,11.58a4.09,4.09,0,0,1-2.29,3.11c-1.39.45-2.95,1.11-2.87,1.76s2.91,1.1,5.36.37a8.23,8.23,0,0,0,5.08-4.51c.48-1.06.26-10.3.11-15.27h0s.38-2.56,1.6-3.29c.14,5.53.62,15.12,0,19.69-.15,1.05-.9,3.06-2.29,3.57s-2.95,1.27-2.87,2,2.91,1.27,5.36.42a8.74,8.74,0,0,0,5.08-5.17c.49-1.23.42-15.15.34-22.38a1,1,0,0,1,1.69,0c-.07,7.23-.14,21.14.34,22.38a8.74,8.74,0,0,0,5.08,5.17c2.46.85,5.28.33,5.36-.42s-1.47-1.5-2.87-2-2.14-2.52-2.29-3.57c-.64-4.57-.17-14.15,0-19.69,1.22.73,1.6,3.29,1.6,3.29h0c-.15,5-.37,14.21.11,15.27a8.23,8.23,0,0,0,5.08,4.51c2.46.73,5.28.29,5.36-.37s-1.47-1.31-2.87-1.76a4.09,4.09,0,0,1-2.29-3.11c-.4-2.46-.18-8.81-.06-11.58,5.2,2.34,10.81.39,13.74-1s5.1-7.86,6.27-10.2,5.1-3.13,4.92-4.48-7.56-2.09-9.46,3.56Z" transform="translate(-395 -357.3)"/></g></g></svg>