<svg id="Layer_1" data-name="Layer 1" xmlns="http://www.w3.org/2000/svg" xmlns:xlink="http://www.w3.org/1999/xlink" viewBox="0 0 296 296"><defs><style>.cls-1{fill:none;}.cls-2{clip-path:url(#clip-path);}.cls-3{fill:#424344;}.cls-4{fill:#525456;}.cls-5{fill:#609ad3;}.cls-6{fill:#6ecff2;}.cls-7{fill:#fff;}</style><clipPath id="clip-path" transform="translate(48 48)"><polygon class="cls-1" points="10 1.25 189.75 1.25 174.5 177.75 100 198.75 26.25 179.75 10 1.25"/></clipPath></defs><title>git</title><g class="cls-2"><g id="vector_web_development_shield_sign_-_version_control_system" data-name="vector web development shield sign - version control system"><path class="cls-3" d="M248,200.64V58.6L190.22.82l-164,179L94.39,248H200.64A47.36,47.36,0,0,0,248,200.64Z" transform="translate(48 48)"/><path class="cls-4" d="M190.22.82,248,58.6V-.64A47.36,47.36,0,0,0,200.64-48H-.64A47.36,47.36,0,0,0-48-.64V200.64A47.36,47.36,0,0,0-.64,248h95L26.18,179.79l164-179Z" transform="translate(48 48)"/><polygon class="cls-5" points="57.87 48.82 238.23 48.82 222.58 226.22 148.05 247.09 74.27 227.71 57.87 48.82 57.87 48.82"/><polygon class="cls-6" points="148 61.52 221.54 61.52 208.62 210.58 148 227.48 148 61.52 148 61.52"/><path class="cls-7" d="M135.09,113.13c-2.32,6.88-11.37,8.45-11.37,8.45s-6.58,1-7.1-3.07-5.16-7.75-5.16-7.75c23.63-1,32.3-17,32.3-31.5s-7.7-20.34-7.7-20.34c.6-19.22-1.42-18-1.42-18C124,40.53,116,47.56,116,47.56c-5.76-2.39-16-1.94-16-1.94s-10.19-.45-16,1.94c0,0-8.07-7-18.69-6.65,0,0-2-1.2-1.42,18,0,0-7.7,5.88-7.7,20.34s8.67,30.51,32.3,31.5c0,0-4.64,3.71-5.16,7.75s-7.1,3.07-7.1,3.07-9-1.57-11.36-8.45-11.29-6-11.52-4.34,4.56,2.62,6,5.46,4,10.77,7.63,12.41,10.4,4,16.73,1.16c.15,3.37.42,11.1-.08,14.09-.19,1.16-1.1,3.24-2.79,3.79s-3.59,1.35-3.49,2.14,3.54,1.34,6.53.45a10,10,0,0,0,6.18-5.49c.58-1.29.32-12.54.13-18.58h0s.46-3.12,1.94-4c.17,6.74.75,18.4,0,24-.18,1.28-1.1,3.72-2.79,4.35s-3.59,1.55-3.49,2.46,3.54,1.55,6.53.52a10.64,10.64,0,0,0,6.18-6.29c.59-1.5.51-18.44.42-27.23a1.21,1.21,0,0,1,2.05,0c-.09,8.8-.17,25.73.42,27.23a10.64,10.64,0,0,0,6.18,6.29c3,1,6.43.4,6.53-.52s-1.79-1.83-3.49-2.46-2.61-3.07-2.79-4.35c-.78-5.56-.2-17.23,0-24,1.48.88,1.94,4,1.94,4h0c-.19,6-.45,17.29.13,18.58a10,10,0,0,0,6.18,5.49c3,.89,6.43.35,6.53-.45s-1.79-1.6-3.49-2.14-2.6-2.63-2.79-3.79c-.49-3-.22-10.72-.08-14.09,6.33,2.85,13.15.47,16.73-1.16s6.21-9.57,7.63-12.41,6.21-3.81,6-5.46-9.2-2.54-11.52,4.34Z" transform="translate(48 48)"/></g></g></svg>