<svg id="Layer_1" data-name="Layer 1" xmlns="http://www.w3.org/2000/svg" xmlns:xlink="http://www.w3.org/1999/xlink" viewBox="0 0 500 500"><defs><style>.cls-1{fill:none;}.cls-2{clip-path:url(#clip-path);}.cls-3{fill:#535556;}.cls-4{fill:#424445;}.cls-5{fill:#e34f26;}.cls-6{fill:#ee652a;}.cls-7{fill:#f3f4f5;}</style><clipPath id="clip-path" transform="translate(-199 -222.5)"><polygon class="cls-1" points="296 306 600 306 574.5 605.5 448 640.5 325 608 296 306"/></clipPath></defs><title>HTML5</title><g class="cls-2"><g id="vector_illustration_of_orange_shield_with_html_five_sign_on_the" data-name="vector illustration of orange shield with html five sign on the"><path class="cls-3" d="M601.4,305l97.6,97.6V302.5a80,80,0,0,0-80-80H279a80,80,0,0,0-80,80v340a80,80,0,0,0,80,80H439.53L324.31,607.28,601.4,305Z" transform="translate(-199 -222.5)"/><path class="cls-4" d="M699,642.5V402.57L601.4,305,324.31,607.28,439.53,722.5H619a80,80,0,0,0,80-80Z" transform="translate(-199 -222.5)"/><polygon class="cls-5" points="97.6 82.47 402.4 82.47 375.95 382.26 250 417.53 125.31 384.78 97.6 82.47 97.6 82.47"/><polygon class="cls-6" points="245.79 105.98 370.07 105.98 348.24 357.89 245.79 386.44 245.79 105.98 245.79 105.98"/><polygon class="cls-7" points="149.23 139.62 338.95 139.62 334.52 179.55 192.05 179.55 194.85 216.5 333.96 216.5 323.89 330.7 245.79 352.81 166.86 331.26 161.26 272.48 200.17 272.48 202.97 302.43 245.79 313.9 288.06 302.43 291.93 254.28 160.14 253.72 149.23 139.62 149.23 139.62"/></g></g></svg>